<svg width="148" height="30" viewBox="0 0 148 30" fill="none" xmlns="http://www.w3.org/2000/svg">
<path d="M45.7733 23.419V10.8925H40.0098V8.24023H54.19V10.8925H48.4255V23.419H45.7733Z" fill="#20231F"/>
<path d="M62.5226 23.4235C61.5137 23.4337 60.5141 23.231 59.5889 22.8286C58.7015 22.4426 57.9007 21.8823 57.2339 21.181C56.567 20.4797 56.0479 19.6516 55.7071 18.7459C55.332 17.7661 55.144 16.7246 55.153 15.6754C55.1401 14.6332 55.3283 13.5983 55.7071 12.6272C56.052 11.7446 56.5783 10.9442 57.252 10.2778C57.9227 9.62393 58.7185 9.1123 59.5918 8.77359C60.527 8.41149 61.5226 8.23069 62.5255 8.24081H66.2219C67.2533 8.22852 68.2776 8.41296 69.24 8.78426C70.1215 9.12191 70.922 9.64137 71.5895 10.3088C72.2569 10.9763 72.7764 11.7768 73.114 12.6583C73.485 13.6204 73.6691 14.6444 73.6565 15.6754C73.6658 16.7245 73.4782 17.766 73.1034 18.7459C72.7563 19.6584 72.2308 20.4924 71.5574 21.1992C70.8904 21.8932 70.0917 22.4471 69.208 22.8286C68.2641 23.2335 67.2459 23.4362 66.219 23.4235H62.5226ZM66.219 20.7713C66.8784 20.7784 67.5323 20.6506 68.1405 20.3957C68.715 20.1558 69.2339 19.8003 69.665 19.3512C70.0961 18.9021 70.4301 18.369 70.6462 17.7852C70.8867 17.1518 71.0072 16.4791 71.0014 15.8016C71.0079 15.1272 70.8874 14.4575 70.6462 13.8277C70.4289 13.2505 70.0945 12.7247 69.6639 12.2832C69.2333 11.8418 68.7159 11.4943 68.1444 11.2628C67.5346 11.0142 66.8813 10.8898 66.2229 10.8969H62.5226C61.8745 10.8904 61.2318 11.0149 60.6331 11.2628C60.0713 11.4951 59.5631 11.8399 59.1396 12.2759C58.7132 12.7209 58.3794 13.246 58.1575 13.8209C57.9144 14.4539 57.7939 15.1274 57.8023 15.8055C57.7965 16.483 57.9169 17.1557 58.1575 17.7891C58.3772 18.3746 58.711 18.9106 59.1396 19.366C59.5621 19.8083 60.0703 20.16 60.6331 20.3996C61.2302 20.6539 61.8735 20.7818 62.5226 20.7751L66.219 20.7713Z" fill="#20231F"/>
<path d="M89.378 8.04688H91.9681V16.5296C91.9681 17.6999 91.8148 18.7199 91.5082 19.5894C91.2263 20.4241 90.7292 21.1696 90.067 21.7506C89.4129 22.3219 88.5674 22.7466 87.5303 23.0248C86.4932 23.303 85.2368 23.4424 83.7611 23.4431C82.2989 23.4431 81.0493 23.3036 80.0122 23.0248C78.9751 22.7459 78.1292 22.3212 77.4745 21.7506C76.8126 21.1693 76.3156 20.4239 76.0334 19.5894C75.7267 18.7141 75.5737 17.6941 75.5743 16.5296V8.04688H78.31V16.5296C78.2951 17.195 78.3902 17.8583 78.5915 18.4928C78.7659 19.0159 79.0845 19.4791 79.5105 19.8291C79.9355 20.1765 80.5029 20.4305 81.2127 20.5909C81.9224 20.7514 82.7997 20.8316 83.8445 20.8316C84.8887 20.8316 85.7657 20.7514 86.4754 20.5909C87.1851 20.4305 87.7525 20.1765 88.1776 19.8291C88.6035 19.4785 88.922 19.0151 89.0966 18.4918C89.2848 17.9497 89.3787 17.2953 89.378 16.5286V8.04688Z" fill="#20231F"/>
<path d="M101.304 23.4233C100.295 23.4335 99.2953 23.2308 98.3701 22.8284C97.4827 22.4424 96.6819 21.8822 96.0151 21.1808C95.3483 20.4795 94.8291 19.6515 94.4883 18.7458C94.1132 17.7659 93.9253 16.7244 93.9342 15.6753C93.9214 14.633 94.1095 13.5981 94.4883 12.6271C94.8333 11.7444 95.3596 10.944 96.0333 10.2776C96.704 9.62376 97.4998 9.11213 98.373 8.77341C99.3083 8.41132 100.304 8.23051 101.307 8.24064H109.535V10.8929H101.307C100.659 10.8864 100.016 11.0108 99.4172 11.2587C98.8555 11.491 98.3472 11.8358 97.9237 12.2719C97.4974 12.7168 97.1636 13.242 96.9416 13.8168C96.6989 14.45 96.5787 15.1234 96.5874 15.8014C96.5813 16.4789 96.7014 17.1515 96.9416 17.785C97.1614 18.3705 97.4952 18.9065 97.9237 19.362C98.3463 19.8043 98.8544 20.1559 99.4172 20.3955C100.014 20.6499 100.658 20.7778 101.307 20.7711H109.535V23.4233H101.304Z" fill="#20231F"/>
<path d="M127.513 23.5345L125.237 19.7129H118.056L119.309 17.5624H123.967L120.58 11.8891L113.688 23.5345H110.66L119.394 9.00009C119.53 8.75546 119.715 8.54191 119.938 8.37318C120.156 8.2167 120.42 8.13594 120.689 8.14318C120.955 8.13472 121.216 8.21571 121.43 8.37318C121.648 8.5446 121.829 8.75774 121.963 9.00009L130.709 23.5345H127.513Z" fill="#20231F"/>
<path d="M134.801 12.3094V23.4152H132.277V9.63484C132.277 9.14767 132.399 8.76143 132.643 8.47612C132.765 8.33427 132.918 8.22203 133.09 8.14789C133.262 8.07375 133.448 8.03964 133.635 8.04815C133.83 8.04828 134.022 8.09101 134.199 8.17334C134.41 8.27859 134.6 8.4198 134.763 8.59063L145.476 19.2209V8.11123H148V22.0207C148 22.5214 147.878 22.9112 147.635 23.1901C147.517 23.3259 147.371 23.4339 147.207 23.5061C147.042 23.5783 146.864 23.6129 146.685 23.6074C146.253 23.6074 145.849 23.4194 145.474 23.0435L134.801 12.3094Z" fill="#20231F"/>
<path d="M9.75457 0.935303C4.05327 3.05102 0 8.52961 0 14.9658C0 21.4021 4.05327 26.8807 9.75457 28.9964V26.8361V0.935303Z" fill="black"/>
<mask id="mask0_3281_81" style="mask-type:luminance" maskUnits="userSpaceOnUse" x="0" y="0" width="10" height="29">
<path d="M9.75457 0.93335C4.05327 3.04907 0 8.52766 0 14.9639C0 21.4001 4.05327 26.8787 9.75457 28.9944V26.8342V0.93335Z" fill="white"/>
</mask>
<g mask="url(#mask0_3281_81)">
<path d="M10.6233 15.7658C14.018 15.7658 16.77 13.0139 16.77 9.61913C16.77 6.22439 14.018 3.47241 10.6233 3.47241C7.22854 3.47241 4.47656 6.22439 4.47656 9.61913C4.47656 13.0139 7.22854 15.7658 10.6233 15.7658Z" fill="white"/>
</g>
<mask id="mask1_3281_81" style="mask-type:luminance" maskUnits="userSpaceOnUse" x="0" y="0" width="10" height="29">
<path d="M9.75457 0.93335C4.05327 3.04907 0 8.52766 0 14.9639C0 21.4001 4.05327 26.8787 9.75457 28.9944V26.8342V0.93335Z" fill="white"/>
</mask>
<g mask="url(#mask1_3281_81)">
<path d="M11.07 2.82788H9.19922V16.5689H11.07V2.82788Z" fill="black"/>
</g>
<path d="M21.2223 26.0803C20.9105 26.0803 20.6655 25.8353 20.6655 25.5235C20.6655 25.2117 20.9105 24.9667 21.2223 24.9667H26.1219C26.6564 24.3654 27.1463 23.7196 27.5917 23.0292H19.3516C19.0398 23.0292 18.7948 22.7842 18.7948 22.4724C18.7948 22.1606 19.0398 21.9156 19.3516 21.9156H28.2376C28.5716 21.2921 28.8389 20.6462 29.0839 19.9781H17.4808C17.169 19.9781 16.9241 19.7331 16.9241 19.4213C16.9241 19.1095 17.169 18.8646 17.4808 18.8646H29.4402C29.7742 17.6397 29.9524 16.348 29.9524 15.0117H12.4922V27.4165C12.4922 28.7973 13.5835 29.9331 14.9642 29.9331H14.9865C18.8393 29.9331 22.3581 28.4632 25.0083 26.0803H21.2223Z" fill="black"/>
<path d="M29.6206 13.8965C28.2844 12.2484 26.1687 11.9812 25.211 11.9366H12.7617V0.467229C13.4967 0.355875 14.2316 0.289062 14.9665 0.289062C21.7591 0.289062 27.6163 4.87682 29.2198 11.469L29.2866 11.7362C29.487 12.627 29.5984 13.362 29.6206 13.8965Z" fill="#F7901E"/>
<path d="M14.967 0.579038C21.6036 0.579038 27.3495 5.07772 28.9307 11.5362L28.9752 11.7367V11.7589C29.0866 12.2489 29.1757 12.672 29.2202 13.0729C27.8394 11.9148 26.08 11.6921 25.2115 11.6476H25.1892H25.167H13.0294V0.712662C13.7198 0.623579 14.3434 0.579038 14.967 0.579038ZM14.967 0C14.1207 0 13.2744 0.0668121 12.4727 0.222707V12.2712H25.1892C26.2582 12.3157 28.8416 12.672 29.9329 14.9882C29.9329 14.9882 30.0442 13.7633 29.5543 11.6476C29.5543 11.6253 29.532 11.5808 29.532 11.5585C29.532 11.5139 29.5097 11.4694 29.5097 11.4249C27.9062 4.85501 22.0268 0 14.967 0Z" fill="black"/>
<path d="M7.52709 7.39598C7.85919 7.39598 8.1284 7.12676 8.1284 6.79467C8.1284 6.46258 7.85919 6.19336 7.52709 6.19336C7.195 6.19336 6.92578 6.46258 6.92578 6.79467C6.92578 7.12676 7.195 7.39598 7.52709 7.39598Z" fill="black"/>
<path d="M29.5765 13.9878C29.4206 13.9878 29.287 13.8542 29.287 13.6983C29.0866 9.53368 25.6792 6.28216 21.4923 6.28216H12.8735C12.7176 6.28216 12.584 6.14854 12.584 5.99264C12.584 5.83675 12.7176 5.70312 12.8735 5.70312H21.4923C25.9687 5.70312 29.6656 9.22189 29.866 13.6983C29.8883 13.8542 29.777 13.9878 29.5765 13.9878C29.5988 13.9878 29.5988 13.9878 29.5765 13.9878Z" fill="black"/>
</svg>
